# AST/ASF file generated using VICON BodyLanguage
# -----------------------------------------------
:version 1.10
:name VICON
:units
  mass 1.0
  length 0.45
  angle deg
:documentation
   .ast/.asf automatically generated from VICON data using
   VICON BodyBuilder and BodyLanguage model FoxedUp or BRILLIANT.MOD
:root
   order TX TY TZ RX RY RZ
   axis XYZ
   position 0 0 0  
   orientation 0 0 0 
:bonedata
  begin
     id 1 
     name lhipjoint
     direction 0.710188 -0.616876 0.339259 
     length 2.5669 
     axis 0 0 0  XYZ
  end
  begin
     id 2 
     name lfemur
     direction 0.34202 -0.939693 0  
     length 7.12796  
     axis 0 0 20  XYZ
    dof rx ry rz
    limits (-160.0 20.0)
           (-70.0 70.0)
           (-60.0 70.0)
  end
  begin
     id 3 
     name ltibia
     direction 0.34202 -0.939693 0   
     length 7.58108   
     axis 0 0 20   XYZ
    dof rx
    limits (-10.0 170.0)
  end
  begin
     id 4 
     name lfoot
     direction 0.0669471 -0.183936 0.980656   
     length 2.17365   
     axis -90 7.62852e-016 20   XYZ
    dof rx rz
    limits (-45.0 90.0)
           (-70.0 20.0)
  end
  begin
     id 5 
     name ltoes
     direction 1.53508e-011 -4.21705e-011 1   
     length 1.09427   
     axis -90 7.62852e-016 20   XYZ
    dof rx
    limits (-90.0 20.0)
  end
  begin
     id 6 
     name rhipjoint
     direction -0.700191 -0.625589 0.34405   
     length 2.53115  
     axis 0 0 0  XYZ 
  end
  begin
     id 7 
     name rfemur
     direction -0.34202 -0.939693 0   
     length 7.33006   
     axis 0 0 -20   XYZ
    dof rx ry rz
    limits (-160.0 20.0)
           (-70.0 70.0)
           (-70.0 60.0)
  end
  begin
     id 8 
     name rtibia
     direction -0.34202 -0.939693 0   
     length 7.64926   
     axis 0 0 -20   XYZ
    dof rx
    limits (-10.0 170.0)
 end
 begin
     id 9 
     name rfoot
     direction -0.0688927 -0.189281 0.979503   
     length 2.20493  
     axis -90 -7.62852e-016 -20   XYZ
    dof rx rz
    limits (-45.0 90.0)
           (-20.0 70.0)
  end
  begin
     id 10 
     name rtoes
     direction -1.53567e-011 -4.21933e-011 1   
     length 1.10919   
     axis -90 -7.62852e-016 -20   XYZ
    dof rx
    limits (-90.0 20.0)
  end
  begin
     id 11 
     name lowerback
     direction -0.0167868 0.989873 -0.140959   
     length 2.14596   
     axis 0 0 0   XYZ
    dof rx ry rz
    limits (-20.0 45.0)
           (-30.0 30.0)
           (-30.0 30.0)
  end
  begin
     id 12 
     name upperback
     direction 0.0129109 0.998033 0.0613525   
     length 2.10457   
     axis 0 0 0   XYZ
    dof rx ry rz
    limits (-20.0 45.0)
           (-30.0 30.0)
           (-30.0 30.0)
  end
  begin
     id 13 
     name thorax
     direction 0.0177047 0.991119 0.131797   
     length 2.17652   
     axis 0 0 0   XYZ
    dof rx ry rz
    limits (-20.0 45.0)
           (-30.0 30.0)
           (-30.0 30.0)
  end
  begin
     id 14 
     name lowerneck
     direction -0.0336893 0.997548 0.0613464   
     length 1.8912   
     axis 0 0 0   XYZ
    dof rx ry rz
    limits (-20.0 45.0)
           (-30.0 30.0)
           (-30.0 30.0)
  end
  begin
     id 15 
     name upperneck
     direction 0.0435909 0.997179 -0.0611028   
     length 1.8829   
     axis 0 0 0   XYZ
    dof rx ry rz
    limits (-20.0 45.0)
           (-30.0 30.0)
           (-30.0 30.0)
  end
  begin
     id 16
     name head
     direction 0.0175076 0.999444 -0.0283782  
     length 1.93197  
     axis 0 0 0   XYZ
    dof rx ry rz
    limits (-20.0 45.0)
           (-30.0 30.0)
           (-30.0 30.0)
  end
  begin
     id 17 
     name lclavicle
     direction 0.919164 0.389875 0.0559876  
     length 3.60004  
     axis 0 0 0   XYZ
    dof ry rz
    limits (-20.0 10.0)
           (0.0 20.0)
  end
  begin
     id 18 
     name lhumerus
     direction 1 -4.48958e-011 6.89191e-027   
     length 5.43301   
     axis 180 -30 -90   XYZ
    dof rx ry rz
    limits (-60.0 90.0)
           (-90.0 90.0)
           (-90.0 90.0)
  end
  begin
     id 19
     name lradius
     direction 1 -4.4897e-011 3.24727e-027   
     length 3.15936   
     axis 180 -30 -90   XYZ
    dof rx
    limits (-10.0 170.0)
  end
  begin
     id 20
     name lwrist
     direction 1 -4.4897e-011 9.00228e-027   
     length 1.57968   
     axis -6.29373e-015 90 90   XYZ
    dof ry
    limits (-180.0 0.0)
 end
  begin
     id 21 
     name lhand
     direction 1 -4.48968e-011 1.80042e-026   
     length 0.712827   
     axis -1.14882e-014 90 90   XYZ
    dof rx rz
    limits (-90.0 90.0)
           (-45.0 45.0)
  end
  begin
     id 22 
     name lfingers
     direction 1 -4.49019e-011 3.60267e-026   
     length 0.574699   
     axis -2.29769e-014 90 90   XYZ
    dof rx
    limits (0.0 90.0)
  end
  begin
     id 23
     name lthumb
     direction 0.707107 -6.3498e-011 0.707107   
     length 0.825157   
     axis -90 45 5.37419e-014   XYZ
    dof rx rz
    limits (-45.0 45.0)
           (-45.0 45.0)
  end
  begin
     id 24 
     name rclavicle
     direction -0.890334 0.455305 -0.00132111   
     length 3.51494  
     axis 0 0 0   XYZ 
    dof ry rz
    limits (-10.0 20.0)
           (-20.0 0.0)
  end
  begin
     id 25 
     name rhumerus
     direction -1 -4.48967e-011 5.07175e-028  
     length 5.34194   
     axis 180 30 90   XYZ
    dof rx ry rz
    limits (-90.0 60.0)
           (-90.0 90.0)
           (-90.0 90.0)
  end
  begin
     id 26 
     name rradius
     direction -1 -4.48955e-011 3.30467e-027   
     length 3.19351   
     axis 180 30 90   XYZ
    dof rx
    limits (-10.0 170.0)
  end
  begin
     id 27 
     name rwrist
     direction -1 -4.48968e-011 9.00208e-027   
     length 1.59676   
     axis -6.29373e-015 -90 -90   XYZ
    dof ry
    limits (-180.0 0.0)
  end
  begin
     id 28
     name rhand
     direction -1 -4.49e-011 1.80099e-026   
     length 0.743862   
     axis -1.14882e-014 -90 -90   XYZ
    dof rx rz
    limits (-90.0 90.0)
           (-45.0 45.0)
  end
  begin
     id 29
     name rfingers
     direction -1 -4.49009e-011 3.6023e-026   
     length 0.599721   
     axis -2.29769e-014 -90 -90   XYZ
    dof rx
    limits (0.0 90.0)
  end
  begin
     id 30
     name rthumb
     direction -0.707107 -6.35025e-011 0.707107   
     length 0.861083   
     axis -90 -45 -5.37419e-014   XYZ
    dof rx rz
    limits (-45.0 45.0)
           (-45.0 45.0)
  end
:hierarchy
  begin
    root lhipjoint rhipjoint lowerback
    lhipjoint lfemur
    lfemur ltibia
    ltibia lfoot
    lfoot ltoes
    rhipjoint rfemur
    rfemur rtibia
    rtibia rfoot
    rfoot rtoes
    lowerback upperback
    upperback thorax
    thorax lowerneck lclavicle rclavicle
    lowerneck upperneck
    upperneck head
    lclavicle lhumerus
    lhumerus lradius
    lradius lwrist
    lwrist lhand lthumb
    lhand lfingers
    rclavicle rhumerus
    rhumerus rradius
    rradius rwrist
    rwrist rhand rthumb
    rhand rfingers
  end

#!OML:ASF H:\Martial Arts Walks\Project 1\Capture day 1\Session 1\male.ASF
:FULLY-SPECIFIED
:DEGREES
535
root -4.01027 14.1619 -15.5167 9.88219 22.2278 2.21537
lowerback 16.1303 -0.60562 -3.32026
upperback -1.62924 -1.37119 0.844916
thorax -10.7801 -0.419076 3.15347
lowerneck -2.22549 -8.18642 -8.88505
upperneck 1.31922 -10.9186 9.88548
head 1.79033 -5.38442 4.05238
rclavicle -2.67862e-014 1.92821e-014
rhumerus -8.93901 21.2914 -56.5878
rradius 82.6012
rwrist -0.273892
rhand -10.559 -35.6267
rfingers 7.12502
rthumb 15.4453 -65.0296
lclavicle -2.67862e-014 1.92821e-014
lhumerus -5.73721 -36.483 86.1761
lradius 93.3915
lwrist 32.5072
lhand -21.1096 22.6848
lfingers 7.12502
lthumb 5.26852 52.5993
rfemur -67.6218 -16.9056 17.9
rtibia 77.8712
rfoot -15.2957 -12.2689
rtoes -3.87251
lfemur 13.7036 0.104351 -5.68672
ltibia 30.7296
lfoot -16.0663 36.1824
ltoes -22.7318
536
root -4.04209 14.2018 -15.4043 10.0074 21.7026 2.12272
lowerback 16.1698 -0.616482 -3.21205
upperback -1.67164 -1.36814 0.82811
thorax -10.8533 -0.422346 3.07473
lowerneck -2.28095 -8.03817 -8.86764
upperneck 1.26327 -10.7124 9.88437
head 1.76254 -5.28072 4.05934
rclavicle 3.95581e-014 1.11319e-014
rhumerus -9.57449 21.6409 -56.8985
rradius 83.1557
rwrist -0.00561596
rhand -10.6337 -35.7849
rfingers 7.12502
rthumb 15.3733 -65.1933
lclavicle 3.95581e-014 1.11319e-014
lhumerus -4.8862 -35.9736 85.4951
lradius 93.4252
lwrist 31.6516
lhand -21.7172 23.4329
lfingers 7.12502
lthumb 4.68183 53.3611
rfemur -67.3383 -16.1846 18.1517
rtibia 77.6388
rfoot -15.4934 -12.0741
rtoes -3.99883
lfemur 13.1055 0.0619642 -5.61716
ltibia 32.4505
lfoot -14.4904 35.4849
ltoes -22.4555
537
root -4.07628 14.2428 -15.2897 10.0826 21.1175 2.0174
lowerback 16.2024 -0.624969 -3.16241
upperback -1.67295 -1.37082 0.826698
thorax -10.8745 -0.426099 3.04656
lowerneck -2.3975 -7.87074 -8.82348
upperneck 1.22618 -10.4762 9.83043
head 1.74308 -5.16089 4.04494
rclavicle 5.01931e-014 -5.96354e-016
rhumerus -10.0418 21.9314 -57.2519
rradius 83.5415
rwrist 0.617374
rhand -10.4708 -35.7476
rfingers 7.12502
rthumb 15.5303 -65.1439
lclavicle 5.01931e-014 -5.96354e-016
lhumerus -4.12954 -35.3288 84.7975
lradius 93.4353
lwrist 30.6392
lhand -22.3146 23.9996
lfingers 7.12502
lthumb 4.10494 53.9398
rfemur -66.9301 -15.3379 18.3529
rtibia 77.3558
rfoot -15.6435 -11.9537
rtoes -4.68107
lfemur 12.2082 0.165651 -5.46194
ltibia 34.8072
lfoot -12.6041 34.5395
ltoes -22.2095
538
root -4.11036 14.2876 -15.1742 10.1426 20.5038 1.82009
lowerback 16.2174 -0.659506 -2.99667
upperback -1.70248 -1.38559 0.819283
thorax -10.9186 -0.442012 2.94885
lowerneck -2.45808 -7.66234 -8.80513
upperneck 1.22689 -10.1922 9.82103
head 1.72525 -5.01793 4.0517
rclavicle 3.04638e-014 -1.76918e-014
rhumerus -10.6547 22.2317 -57.7629
rradius 83.9362
rwrist 1.38462
rhand -10.0939 -35.9451
rfingers 7.12502
rthumb 15.8932 -65.3129
lclavicle 3.04638e-014 -1.76918e-014
lhumerus -3.57385 -34.6165 84.0834
lradius 93.4299
lwrist 29.5873
lhand -22.9143 24.6035
lfingers 7.12502
lthumb 3.52584 54.5541
rfemur -66.4717 -14.3657 18.5949
rtibia 76.989
rfoot -15.7491 -11.8021
rtoes -5.11479
lfemur 10.9088 0.339966 -5.16396
ltibia 37.8383
lfoot -10.5563 33.2217
ltoes -21.3304
539
root -4.1436 14.3386 -15.0597 10.1064 19.9334 1.58724
lowerback 16.347 -0.708231 -2.74707
upperback -1.72883 -1.40645 0.80201
thorax -11.0275 -0.464784 2.7974
lowerneck -2.52166 -7.46379 -8.72746
upperneck 1.28597 -9.92373 9.72627
head 1.71913 -4.88303 4.02152
rclavicle -1.46107e-014 8.34896e-015
rhumerus -11.2888 22.4811 -58.3404
rradius 84.233
rwrist 2.16324
rhand -9.95846 -35.9435
rfingers 7.12502
rthumb 16.0236 -65.3008
lclavicle -1.46107e-014 8.34896e-015
lhumerus -3.20068 -33.8684 83.41
lradius 93.4309
lwrist 28.6037
lhand -23.4712 25.0488
lfingers 7.12502
lthumb 2.98801 55.0076
rfemur -65.8549 -13.3972 18.8462
rtibia 76.5328
rfoot -15.8253 -11.6617
rtoes -5.88686
lfemur 9.25619 0.346586 -4.84607
ltibia 41.5695
lfoot -7.73625 31.7386
ltoes -19.7164
540
root -4.17624 14.3917 -14.946 10.147 19.1855 1.27959
lowerback 16.3375 -0.722319 -2.48415
upperback -1.75703 -1.37319 0.795657
thorax -11.0615 -0.464528 2.63281
lowerneck -2.63239 -7.24065 -8.64484
upperneck 1.35417 -9.61956 9.62715
head 1.7201 -4.72913 3.98886
rclavicle 8.97016e-015 2.78299e-015
rhumerus -11.8685 22.7579 -58.9561
rradius 84.4642
rwrist 2.91516
rhand -9.82754 -35.7811
rfingers 7.12502
rthumb 16.1497 -65.1283
lclavicle 8.97016e-015 2.78299e-015
lhumerus -2.91913 -33.0242 82.6898
lradius 93.4368
lwrist 27.8886
lhand -23.9027 25.3542
lfingers 7.12502
lthumb 2.57133 55.3184
rfemur -65.3335 -12.2237 19.1651
rtibia 76.0095
rfoot -16.1289 -11.3293
rtoes -6.8262
lfemur 7.20284 0.14986 -4.63666
ltibia 45.9199
lfoot -4.24447 30.0009
ltoes -16.5702
541
root -4.20303 14.4469 -14.8357 9.97478 18.5095 0.844316
lowerback 16.4423 -0.7549 -2.04316
upperback -1.67765 -1.32473 0.831296
thorax -11.0441 -0.468342 2.41006
lowerneck -2.82517 -7.04269 -8.57951
upperneck 1.41167 -9.34285 9.54295
head 1.73585 -4.58687 3.95901
rclavicle 3.37188e-014 2.05742e-014
rhumerus -12.3897 22.9408 -59.5069
rradius 84.6801
rwrist 3.56683
rhand -9.73914 -35.5481
rfingers 7.12502
rthumb 16.2348 -64.8884
lclavicle 3.37188e-014 2.05742e-014
lhumerus -2.60327 -32.149 81.9549
lradius 93.4434
lwrist 27.6057
lhand -24.3592 25.8422
lfingers 7.12502
lthumb 2.13041 55.8114
rfemur -64.5467 -11.103 19.5589
rtibia 75.4579
rfoot -16.3704 -11.0505
rtoes -8.03084
lfemur 5.00068 -0.248528 -4.30806
ltibia 50.7707
lfoot 0.560091 27.4768
ltoes -9.36305
542
root -4.22462 14.4949 -14.7282 9.84379 17.7962 0.367778
lowerback 16.527 -0.782468 -1.53763
upperback -1.66415 -1.25527 0.875015
thorax -11.0909 -0.464115 2.15481
lowerneck -2.91321 -6.8337 -8.5173
upperneck 1.48518 -9.05869 9.43371
head 1.73793 -4.44387 3.9261
rclavicle -1.81143e-014 -4.57205e-015
rhumerus -12.9951 23.1602 -60.0894
rradius 84.8574
rwrist 4.16382
rhand -9.63828 -35.3514
rfingers 7.12502
rthumb 16.3319 -64.6837
lclavicle -1.81143e-014 -4.57205e-015
lhumerus -2.55995 -31.243 81.3398
lradius 93.511
lwrist 27.839
lhand -24.7257 26.0437
lfingers 7.12502
lthumb 1.77652 56.0161
rfemur -63.8484 -9.934 19.9575
rtibia 74.936
rfoot -16.711 -10.7863
rtoes -8.02072
lfemur 2.46295 -0.683171 -3.97193
ltibia 56.0396
lfoot 5.85159 22.4042
ltoes 1.32087
543
root -4.23897 14.5424 -14.617 9.44537 17.6785 0.0274722
lowerback 16.8672 -1.02415 -0.961638
upperback -1.54323 -1.45266 0.948717
thorax -11.1548 -0.588973 1.96574
lowerneck -3.03207 -6.62995 -8.49646
upperneck 1.54097 -8.7761 9.30775
head 1.74141 -4.3016 3.8937
rclavicle 2.49226e-014 1.98785e-016
rhumerus -13.5405 23.4532 -60.517
rradius 85.0596
rwrist 4.66777
rhand -9.48796 -35.3783
rfingers 7.12502
rthumb 16.4767 -64.6987
lclavicle 2.49226e-014 1.98785e-016
lhumerus -2.60569 -30.2567 80.8184
lradius 93.6073
lwrist 28.5471
lhand -25.2377 26.2195
lfingers 7.12502
lthumb 1.28202 56.1954
rfemur -62.7019 -9.37906 20.2054
rtibia 74.4926
rfoot -17.0537 -11.0206
rtoes -8.90626
lfemur -0.2071 -1.68544 -3.71158
ltibia 61.5479
lfoot 6.01248 13.4653
ltoes 1.721
544
root -4.25064 14.5806 -14.5125 9.31988 17.0368 -0.38694
lowerback 16.886 -1.06163 -0.476526
upperback -1.49284 -1.39257 1.0353
thorax -11.1207 -0.587643 1.76876
lowerneck -3.06146 -6.43891 -8.5383
upperneck 1.44968 -8.50179 8.88777
head 1.86334 -4.18351 4.21077
rclavicle 3.74709e-014 4.47266e-015
rhumerus -14.0814 23.708 -60.8674
rradius 85.2288
rwrist 5.02518
rhand -9.73545 -35.2869
rfingers 7.12502
rthumb 16.2384 -64.6269
lclavicle 3.74709e-014 4.47266e-015
lhumerus -2.74841 -29.2799 80.3938
lradius 93.7525
lwrist 29.7517
lhand -25.8083 26.6625
lfingers 7.12502
lthumb 0.730887 56.641
rfemur -62.0136 -8.36353 20.5269
rtibia 74.0809
rfoot -17.263 -11.4405
rtoes -9.77078
lfemur -3.21545 -2.00697 -3.60497
ltibia 67.2918
lfoot 1.16112 4.33303
ltoes -2.57721
545
root -4.25932 14.62 -14.4079 9.09198 16.5049 -0.698334
lowerback 17.0404 -1.11313 -0.0116732
upperback -1.40794 -1.35825 1.08772
thorax -11.1255 -0.597626 1.55552
lowerneck -3.00629 -6.26134 -8.50276
upperneck 1.36979 -8.26162 8.80995
head 1.79678 -4.06583 4.19053
rclavicle 3.762e-014 -3.01159e-014
rhumerus -14.5278 23.9721 -61.123
rradius 85.2793
rwrist 5.26633
rhand -9.99552 -35.2779
rfingers 7.12502
rthumb 15.988 -64.6381
lclavicle 3.762e-014 -3.01159e-014
lhumerus -2.93351 -28.3611 80.0312
lradius 93.8766
lwrist 31.1934
lhand -26.7229 26.6043
lfingers 7.12502
lthumb -0.152485 56.584
rfemur -61.1666 -7.51394 20.7519
rtibia 73.6954
rfoot -17.5344 -11.7732
rtoes -10.5524
lfemur -6.28002 -2.17319 -3.67642
ltibia 73.108
lfoot -3.50066 -1.67098
ltoes -4.09252
546
root -4.26474 14.6587 -14.3009 8.82356 15.9623 -0.967407
lowerback 17.1705 -1.14106 0.435698
upperback -1.30362 -1.29624 1.13285
thorax -11.0943 -0.593827 1.33569
lowerneck -2.85312 -6.09198 -8.49752
upperneck 1.25387 -8.03786 8.77189
head 1.70623 -3.95818 4.19241
rclavicle -4.16951e-014 1.20265e-014
rhumerus -15.009 24.164 -61.3325
rradius 85.3247
rwrist 5.50379
rhand -10.0215 -35.3867
rfingers 7.12502
rthumb 15.963 -64.7489
lclavicle -4.16951e-014 1.20265e-014
lhumerus -3.25167 -27.4525 79.7987
lradius 94.0137
lwrist 32.7504
lhand -27.2535 26.9917
lfingers 7.12502
lthumb -0.664959 56.9704
rfemur -60.2765 -6.74022 20.9477
rtibia 73.3074
rfoot -17.8915 -11.8673
rtoes -11.0458
lfemur -9.43189 -2.09847 -3.93289
ltibia 79.0072
lfoot -5.48493 -3.57563
ltoes -6.02616
547
root -4.2682 14.7015 -14.1932 8.50833 15.2988 -1.26164
lowerback 17.2932 -1.09839 0.843784
upperback -1.1199 -1.14448 1.21594
thorax -10.9684 -0.543933 1.15395
lowerneck -2.88565 -5.96409 -8.44715
upperneck 1.2039 -7.85865 8.63553
head 1.66816 -3.86939 4.14183
rclavicle -3.926e-015 6.95746e-016
rhumerus -15.3212 24.2828 -61.38
rradius 85.2461
rwrist 5.59421
rhand -10.1233 -35.4297
rfingers 7.12502
rthumb 15.8649 -64.7997
lclavicle -3.926e-015 6.95746e-016
lhumerus -3.53094 -26.5327 79.6351
lradius 94.1114
lwrist 34.2445
lhand -27.9778 27.9854
lfingers 7.12502
lthumb -1.3645 57.9607
rfemur -59.3032 -5.90461 21.1851
rtibia 72.8606
rfoot -18.364 -11.8582
rtoes -11.093
lfemur -12.7177 -1.50158 -4.22198
ltibia 84.9025
lfoot -5.90486 -3.66453
ltoes -6.5191
548
root -4.268 14.7499 -14.0844 8.17959 14.6729 -1.59966
lowerback 17.4891 -1.06195 1.35998
upperback -0.996829 -0.976656 1.29114
thorax -10.9532 -0.491796 0.900637
lowerneck -2.80134 -5.83606 -8.40389
upperneck 1.17525 -7.68944 8.52945
head 1.61925 -3.78768 4.10607
rclavicle -4.86525e-014 -4.96962e-015
rhumerus -15.816 24.3834 -61.4513
rradius 85.1449
rwrist 5.66578
rhand -10.3589 -35.4135
rfingers 7.12502
rthumb 15.638 -64.8015
lclavicle -4.86525e-014 -4.96962e-015
lhumerus -4.01132 -25.6341 79.5954
lradius 94.1672
lwrist 35.6288
lhand -28.4571 28.7869
lfingers 7.12502
lthumb -1.82742 58.7588
rfemur -58.2571 -5.17831 21.5088
rtibia 72.3343
rfoot -18.6881 -11.9667
rtoes -11.4725
lfemur -16.1446 -0.681015 -4.49509
ltibia 90.7218
lfoot -6.32471 -2.03725
ltoes -8.75605
